<svg width="52" height="52" viewBox="0 0 52 52" fill="none" xmlns="http://www.w3.org/2000/svg">
<path fill-rule="evenodd" clip-rule="evenodd" d="M15.2809 0.156C18.0535 0.0283636 18.9375 0 26 0C33.0625 0 33.9465 0.0307272 36.7167 0.156C39.4869 0.281273 41.3778 0.723273 43.0324 1.36382C44.7649 2.01855 46.3367 3.042 47.6367 4.36564C48.9604 5.66327 49.9815 7.23273 50.6338 8.96764C51.2767 10.6222 51.7164 12.5131 51.844 15.2785C51.9716 18.0558 52 18.9398 52 26C52 33.0625 51.9693 33.9465 51.844 36.7191C51.7187 39.4845 51.2767 41.3755 50.6338 43.03C49.9814 44.7651 48.9587 46.3372 47.6367 47.6367C46.3367 48.9604 44.7649 49.9815 43.0324 50.6338C41.3778 51.2767 39.4869 51.7164 36.7215 51.844C33.9465 51.9716 33.0625 52 26 52C18.9375 52 18.0535 51.9693 15.2809 51.844C12.5155 51.7187 10.6245 51.2767 8.97 50.6338C7.2349 49.9814 5.66285 48.9586 4.36327 47.6367C3.04053 46.3383 2.01693 44.767 1.36382 43.0324C0.723273 41.3778 0.283636 39.4869 0.156 36.7215C0.0283636 33.9442 0 33.0602 0 26C0 18.9375 0.0307272 18.0535 0.156 15.2833C0.281273 12.5131 0.723273 10.6222 1.36382 8.96764C2.01789 7.23292 3.04228 5.66165 4.36564 4.36327C5.66337 3.04082 7.23384 2.01723 8.96764 1.36382C10.6222 0.723273 12.5131 0.283636 15.2785 0.156H15.2809ZM36.5064 4.836C33.7645 4.71073 32.942 4.68473 26 4.68473C19.058 4.68473 18.2355 4.71073 15.4936 4.836C12.9575 4.95182 11.5818 5.37491 10.6647 5.73182C9.45218 6.20455 8.58473 6.76473 7.67473 7.67473C6.81211 8.51394 6.14824 9.53558 5.73182 10.6647C5.37491 11.5818 4.95182 12.9575 4.836 15.4936C4.71073 18.2355 4.68473 19.058 4.68473 26C4.68473 32.942 4.71073 33.7645 4.836 36.5064C4.95182 39.0425 5.37491 40.4182 5.73182 41.3353C6.14782 42.4627 6.812 43.4862 7.67473 44.3253C8.51382 45.188 9.53727 45.8522 10.6647 46.2682C11.5818 46.6251 12.9575 47.0482 15.4936 47.164C18.2355 47.2893 19.0556 47.3153 26 47.3153C32.9444 47.3153 33.7645 47.2893 36.5064 47.164C39.0425 47.0482 40.4182 46.6251 41.3353 46.2682C42.5478 45.7955 43.4153 45.2353 44.3253 44.3253C45.188 43.4862 45.8522 42.4627 46.2682 41.3353C46.6251 40.4182 47.0482 39.0425 47.164 36.5064C47.2893 33.7645 47.3153 32.942 47.3153 26C47.3153 19.058 47.2893 18.2355 47.164 15.4936C47.0482 12.9575 46.6251 11.5818 46.2682 10.6647C45.7955 9.45218 45.2353 8.58473 44.3253 7.67473C43.486 6.81217 42.4644 6.14832 41.3353 5.73182C40.4182 5.37491 39.0425 4.95182 36.5064 4.836ZM22.6791 34.0151C24.5337 34.7871 26.5989 34.8913 28.5218 34.3099C30.4448 33.7284 32.1062 32.4974 33.2223 30.8271C34.3385 29.1568 34.8401 27.1508 34.6416 25.1517C34.443 23.1526 33.5566 21.2845 32.1336 19.8664C31.2266 18.9599 30.1298 18.2657 28.9222 17.834C27.7147 17.4022 26.4265 17.2436 25.1503 17.3695C23.8741 17.4953 22.6416 17.9026 21.5417 18.5619C20.4418 19.2213 19.5018 20.1163 18.7893 21.1826C18.0768 22.2488 17.6095 23.4598 17.4212 24.7283C17.2329 25.9968 17.3282 27.2912 17.7002 28.5185C18.0722 29.7457 18.7117 30.8753 19.5726 31.8257C20.4335 32.7761 21.4945 33.5239 22.6791 34.0151ZM16.5502 16.5502C17.7911 15.3092 19.2644 14.3248 20.8858 13.6532C22.5072 12.9816 24.245 12.6359 26 12.6359C27.755 12.6359 29.4928 12.9816 31.1142 13.6532C32.7356 14.3248 34.2089 15.3092 35.4498 16.5502C36.6908 17.7911 37.6752 19.2644 38.3468 20.8858C39.0184 22.5072 39.3641 24.245 39.3641 26C39.3641 27.755 39.0184 29.4928 38.3468 31.1142C37.6752 32.7356 36.6908 34.2089 35.4498 35.4498C32.9436 37.9561 29.5444 39.3641 26 39.3641C22.4556 39.3641 19.0564 37.9561 16.5502 35.4498C14.0439 32.9436 12.6359 29.5444 12.6359 26C12.6359 22.4556 14.0439 19.0564 16.5502 16.5502ZM42.328 14.6262C42.6355 14.3361 42.8817 13.9872 43.052 13.6003C43.2223 13.2134 43.3132 12.7962 43.3193 12.3735C43.3255 11.9508 43.2468 11.5311 43.0879 11.1394C42.9289 10.7476 42.693 10.3918 42.3941 10.0928C42.0952 9.79389 41.7393 9.55797 41.3475 9.39904C40.9558 9.24011 40.5361 9.1614 40.1134 9.16756C39.6907 9.17372 39.2735 9.26464 38.8866 9.43492C38.4997 9.6052 38.1508 9.85139 37.8607 10.1589C37.2966 10.757 36.9877 11.5514 36.9997 12.3735C37.0116 13.1956 37.3435 13.9806 37.9249 14.562C38.5063 15.1434 39.2913 15.4753 40.1134 15.4873C40.9355 15.4992 41.7299 15.1904 42.328 14.6262Z" fill="white"/>
</svg>
