<svg width="1428" height="1346" viewBox="0 0 1428 1346" fill="none" xmlns="http://www.w3.org/2000/svg">
<path d="M1421.5 1316.5C1439 1197.33 1414.8 960.8 1178 968C882 977 564.5 733.5 711.5 475.5C858.5 217.5 1174.5 235.5 1065.5 1.5" stroke="#22577A" stroke-width="3" stroke-linecap="round" stroke-dasharray="20 20"/>
<path d="M-97 940.5C69.3333 929.833 363.2 995.6 208 1344" stroke="#22577A" stroke-width="3" stroke-linecap="round" stroke-dasharray="20 20"/>
<path d="M288 16C173.667 57.1667 -18.7 170.4 126.5 294C308 448.5 455 332 391.5 259.5C328 187 349.5 123 406 148.5C462.5 174 845.5 475.5 520.5 435.5C195.5 395.5 571 637.5 406 652C274 663.6 48.3333 512.5 -48 435.5" stroke="#22577A" stroke-width="3" stroke-linecap="round" stroke-dasharray="20 20"/>
</svg>
