<svg width="65" height="65" viewBox="0 0 65 65" fill="none" xmlns="http://www.w3.org/2000/svg">
<g clip-path="url(#clip0_27_101)">
<path d="M32.5 45.6008C42.0241 45.6008 49.7449 37.88 49.7449 28.3559C49.7449 18.8318 42.0241 11.111 32.5 11.111C22.9759 11.111 15.2551 18.8318 15.2551 28.3559C15.2551 37.88 22.9759 45.6008 32.5 45.6008Z" fill="#F75534"/>
<path d="M34.8877 44.7168C25.3636 44.7168 17.6428 36.9961 17.6428 27.4719C17.6428 20.5047 21.775 14.5031 27.7219 11.7825C20.5221 13.8543 15.2549 20.4899 15.2549 28.3563C15.2549 37.8804 22.9757 45.6012 32.4999 45.6012C35.0567 45.6012 37.4833 45.044 39.6656 44.0458C38.1485 44.4824 36.5455 44.7168 34.8877 44.7168Z" fill="#BD391E"/>
<path d="M58.4072 54.9714H6.59282C6.04235 54.9714 5.85522 54.2392 6.33675 53.9752C10.9425 51.4614 22.9688 44.5064 30.0445 36.8165C30.1453 36.7064 30.286 36.6454 30.4332 36.6454H34.5667C34.7139 36.6454 34.8545 36.7064 34.9554 36.8165C42.0311 44.5064 54.0574 51.4614 58.6631 53.9752C59.1447 54.2392 58.9577 54.9714 58.4072 54.9714Z" fill="#7FB2F0"/>
<path d="M34.3293 21.3784C34.3293 24.3723 31.9004 26.7999 28.9065 26.7999H10.9743C10.9743 26.7999 4.45441 27.2681 4.45441 22.5869C4.45441 22.4741 4.44247 22.36 4.44247 22.2446C4.44247 19.7176 6.49061 17.6681 9.01901 17.6681C9.41028 17.6681 9.78834 17.7172 10.1505 17.81C10.5405 15.2882 12.7213 13.3581 15.3532 13.3581C15.8479 13.3581 16.3243 13.4285 16.7779 13.5544C17.4809 10.8828 20.4483 8.63029 23.9398 9.09468C27.3741 9.55095 29.892 13.057 29.4171 15.9635C29.4158 15.9688 29.4158 15.9754 29.4144 15.9807C30.607 16.0908 31.6867 16.5883 32.5291 17.3431C33.6342 18.3366 34.3293 19.7759 34.3293 21.3784Z" fill="#F7EDE3"/>
<path d="M6.84177 22.9116C6.84177 22.8073 6.83073 22.7022 6.83073 22.5956C6.83073 20.4009 8.82732 18.6276 11.1437 19.0323C11.3836 19.0742 11.6125 18.9207 11.6707 18.6842C12.2624 16.2766 14.8639 14.6801 17.3337 15.1201C17.5543 15.1594 17.7722 15.0423 17.8534 14.8335C19.0898 11.656 21.7273 10.042 24.8318 10.4549C26.68 10.7007 28.2391 11.9033 29.1327 13.3949C28.3671 11.2935 26.3871 9.42058 23.9403 9.0952C20.4489 8.63094 17.4815 10.8833 16.7784 13.5549C16.3247 13.4289 15.8485 13.3587 15.3537 13.3587C12.7219 13.3587 10.5411 15.2887 10.1511 17.8105C9.78886 17.7177 9.4108 17.6686 9.01953 17.6686C6.49113 17.6686 4.44299 19.7181 4.44299 22.2451C4.44299 22.3605 4.45493 22.4744 4.45493 22.5874C4.45493 27.2678 10.9749 26.8005 10.9749 26.8005H11.9038C10.2053 26.7162 6.84177 26.1418 6.84177 22.9116Z" fill="#DBD2CA"/>
<path d="M12.1719 14.4294C12.139 14.4541 12.106 14.4787 12.0736 14.5043C12.1007 14.5106 12.1284 14.5156 12.1553 14.5224C12.1601 14.4912 12.1666 14.4604 12.1719 14.4294Z" fill="#DBD2CA"/>
<path d="M62.5808 32.6494C62.5808 35.6433 60.1519 38.0709 57.158 38.0709H39.2258C39.2258 38.0709 32.7059 38.5383 32.7059 33.8579C32.7059 33.7449 32.694 33.631 32.694 33.5156C32.694 30.9886 34.7421 28.9391 37.2705 28.9391C37.6618 28.9391 38.0399 28.9882 38.402 29.081C38.792 26.5593 40.9728 24.6291 43.6047 24.6291C44.0995 24.6291 44.5758 24.6995 45.0294 24.8254C45.7324 22.1538 48.6999 19.9013 52.1913 20.3657C55.6324 20.8233 58.1528 24.3413 57.6659 27.2517C60.4226 27.5077 62.5808 29.8252 62.5808 32.6494Z" fill="#F7EDE3"/>
<path d="M40.5751 25.5886C40.4518 25.6754 40.3326 25.7676 40.2175 25.8643C40.3159 25.8827 40.4134 25.9038 40.5097 25.9285C40.5274 25.8138 40.5501 25.7008 40.5751 25.5886Z" fill="#DBD2CA"/>
<path d="M32.5 36.6454C25.3699 44.273 16.9796 51.3367 9.73338 54.9714H6.59282C6.04235 54.9714 5.85522 54.2392 6.33675 53.9752C10.9425 51.4614 22.9688 44.5064 30.0445 36.8165C30.1453 36.7064 30.286 36.6454 30.4332 36.6454H32.5Z" fill="#5F95D4"/>
<path d="M48.3374 47.7405C47.7205 48.7765 47.1647 49.9133 45.9443 49.9133C43.7039 49.9133 43.7039 46.0822 41.4647 46.0822C39.2242 46.0822 39.2242 49.9133 36.9836 49.9133C34.7417 49.9133 34.7417 46.0822 32.5025 46.0822C30.2621 46.0822 30.2621 49.9133 28.0215 49.9133C25.7796 49.9133 25.7796 46.0822 23.5404 46.0822C23.2419 46.0822 22.9832 46.1499 22.7538 46.2692C22.523 46.3873 22.32 46.557 22.1369 46.7587C21.1393 47.8584 20.7003 49.9133 19.0593 49.9133C18.7343 49.9133 18.4571 49.8324 18.2131 49.6944C18.1919 49.6825 18.1707 49.6691 18.1493 49.6547C17.5113 49.2634 17.104 48.474 16.6663 47.7378C21.3012 44.6497 26.3486 40.8332 30.0443 36.8165C30.1451 36.7077 30.2858 36.6454 30.4331 36.6454H34.5665C34.7138 36.6454 34.8543 36.7077 34.9553 36.8165C38.6524 40.8346 43.7012 44.6523 48.3374 47.7405Z" fill="#F7EDE3"/>
<path d="M32.5292 17.3431C31.2955 16.8297 29.6811 16.8058 28.21 17.4572C27.2085 17.9016 26.4099 18.72 25.9788 19.7283C25.2333 21.4726 25.4734 23.1825 26.3077 24.4733C26.3873 24.5953 26.2361 24.7359 26.122 24.6457C24.4692 23.3403 23.6839 20.9845 24.7782 18.5834C25.2093 17.6403 25.9747 16.8854 26.9205 16.461C27.7509 16.0883 28.6039 15.9357 29.4171 15.9636C29.4158 15.9689 29.4158 15.9755 29.4144 15.9809C30.607 16.0908 31.6869 16.5883 32.5292 17.3431Z" fill="#DBD2CA"/>
<path d="M35.0929 34.1821C35.0929 34.0778 35.0819 33.9727 35.0819 33.8662C35.0819 31.6714 37.0784 29.8981 39.3948 30.3028C39.6348 30.3447 39.8637 30.1912 39.9218 29.9547C40.5135 27.5471 43.1151 25.9506 45.5848 26.3907C45.8055 26.4299 46.0233 26.3128 46.1046 26.104C47.3411 22.9265 49.9784 21.3125 53.0829 21.7254C54.9311 21.9712 56.4902 23.1738 57.3838 24.6654C56.6182 22.564 54.6382 20.6911 52.1915 20.3657C48.7 19.9014 45.7326 22.1538 45.0295 24.8254C44.5758 24.6994 44.0996 24.6292 43.6049 24.6292C40.973 24.6292 38.7922 26.5592 38.4022 29.081C38.04 28.9882 37.6619 28.9391 37.2707 28.9391C34.7423 28.9391 32.6941 30.9886 32.6941 33.5156C32.6941 33.631 32.7061 33.7449 32.7061 33.8579C32.7061 38.5383 39.226 38.071 39.226 38.071H40.1549C38.4564 37.9868 35.0929 37.4126 35.0929 34.1821Z" fill="#DBD2CA"/>
<path d="M60.7803 28.6138C59.5466 28.1004 57.9323 28.0766 56.4611 28.728C55.4596 29.1723 54.6611 29.9908 54.2299 30.999C53.4845 32.7434 53.7245 34.4533 54.5589 35.744C54.6385 35.866 54.4873 36.0067 54.3731 35.9164C52.7203 34.6111 51.935 32.2552 53.0293 29.8542C53.4605 28.911 54.2259 28.1562 55.1717 27.7318C56.0021 27.359 56.8551 27.2064 57.6682 27.2344C57.6669 27.2397 57.6669 27.2463 57.6655 27.2516C58.8581 27.3616 59.938 27.859 60.7803 28.6138Z" fill="#DBD2CA"/>
<path d="M32.5 36.6454C28.015 41.4422 23.0326 46.0174 18.1496 49.6547C17.5115 49.2634 17.1043 48.4741 16.6665 47.7378C21.3015 44.6497 26.3489 40.8332 30.0446 36.8166C30.1454 36.7078 30.2861 36.6454 30.4333 36.6454H32.5Z" fill="#DBD2CA"/>
<path d="M64.0051 55.9663H0.994932C0.445479 55.9663 0 55.5208 0 54.9714C0 54.4219 0.445479 53.9764 0.994932 53.9764H64.0052C64.5547 53.9764 65.0001 54.4219 65.0001 54.9714C65.0001 55.5208 64.5545 55.9663 64.0051 55.9663Z" fill="#5F95D4"/>
</g>
<defs>
<clipPath id="clip0_27_101">
<rect width="65" height="65" fill="white"/>
</clipPath>
</defs>
</svg>
