<svg width="247" height="65" viewBox="0 0 247 65" fill="none" xmlns="http://www.w3.org/2000/svg">
<path d="M99.7923 23.576C100.272 23.576 100.76 23.536 101.256 23.456C101.752 23.36 102.192 23.232 102.576 23.072C102.56 24.096 102.296 24.864 101.784 25.376C101.288 25.872 100.552 26.12 99.5763 26.12C99.1123 26.12 98.5923 26.08 98.0163 26C97.4563 25.92 96.7363 25.784 95.8563 25.592L92.5443 41H89.0883L92.4963 25.112H92.2083C90.6563 25.112 89.5123 25.512 88.7763 26.312C88.0563 27.096 87.6963 28.312 87.6963 29.96C87.6963 30.264 87.7123 30.528 87.7443 30.752C87.7923 30.976 87.8643 31.192 87.9603 31.4C87.9923 31.464 88.0083 31.512 88.0083 31.544C88.0243 31.56 88.0323 31.576 88.0323 31.592C87.1363 31.592 86.4803 31.408 86.0643 31.04C85.6643 30.656 85.4643 30.064 85.4643 29.264C85.4643 27.36 86.1763 25.848 87.6003 24.728C89.0403 23.592 91.0563 23.024 93.6483 23.024C94.1763 23.024 94.6803 23.048 95.1603 23.096C95.6563 23.128 96.2883 23.2 97.0563 23.312C97.7283 23.424 98.2483 23.496 98.6163 23.528C99.0003 23.56 99.3923 23.576 99.7923 23.576ZM96.539 37.304C96.539 36.392 96.683 35.424 96.971 34.4C97.275 33.376 97.683 32.464 98.195 31.664C98.787 30.72 99.499 30.008 100.331 29.528C101.163 29.032 102.091 28.784 103.115 28.784C104.139 28.784 104.907 29.104 105.419 29.744C105.931 30.384 106.187 31.344 106.187 32.624C106.219 32.64 106.251 32.656 106.283 32.672C106.331 32.672 106.387 32.672 106.451 32.672C106.947 32.672 107.539 32.536 108.227 32.264C108.915 31.992 109.555 31.648 110.147 31.232L110.363 31.88C109.915 32.36 109.315 32.776 108.563 33.128C107.827 33.48 107.011 33.728 106.115 33.872C105.923 36.032 105.299 37.776 104.243 39.104C103.187 40.432 101.899 41.096 100.379 41.096C99.131 41.096 98.179 40.776 97.523 40.136C96.867 39.496 96.539 38.552 96.539 37.304ZM103.307 30.248C102.539 30.248 101.811 31.024 101.123 32.576C100.451 34.128 100.115 35.6 100.115 36.992C100.115 37.744 100.195 38.256 100.355 38.528C100.531 38.8 100.859 38.936 101.339 38.936C101.931 38.936 102.491 38.456 103.019 37.496C103.563 36.536 103.931 35.352 104.123 33.944C103.899 33.896 103.731 33.792 103.619 33.632C103.523 33.456 103.475 33.224 103.475 32.936C103.475 32.632 103.539 32.368 103.667 32.144C103.795 31.92 103.979 31.752 104.219 31.64C104.187 31.128 104.099 30.768 103.955 30.56C103.827 30.352 103.611 30.248 103.307 30.248ZM111.43 38.816C111.846 38.816 112.214 38.64 112.534 38.288C112.87 37.92 113.142 37.392 113.35 36.704L114.982 29H118.438L116.71 37.16C116.678 37.304 116.654 37.44 116.638 37.568C116.622 37.68 116.614 37.8 116.614 37.928C116.614 38.248 116.686 38.48 116.83 38.624C116.99 38.752 117.246 38.816 117.598 38.816C118.014 38.816 118.39 38.632 118.726 38.264C119.062 37.896 119.334 37.376 119.542 36.704H120.55C120.038 38.176 119.374 39.288 118.558 40.04C117.742 40.776 116.798 41.144 115.726 41.144C115.038 41.144 114.486 40.952 114.07 40.568C113.654 40.168 113.414 39.6 113.35 38.864C112.886 39.632 112.358 40.208 111.766 40.592C111.19 40.96 110.534 41.144 109.798 41.144C108.998 41.144 108.366 40.896 107.902 40.4C107.454 39.888 107.23 39.176 107.23 38.264C107.23 38.056 107.246 37.824 107.278 37.568C107.31 37.296 107.358 37.008 107.422 36.704L109.054 29H112.51L110.782 37.16C110.75 37.288 110.726 37.408 110.71 37.52C110.71 37.616 110.71 37.72 110.71 37.832C110.71 38.152 110.766 38.4 110.878 38.576C111.006 38.736 111.19 38.816 111.43 38.816ZM122.083 41H118.627L121.171 29H124.627L124.315 30.488C125.019 29.896 125.571 29.504 125.971 29.312C126.387 29.104 126.803 29 127.219 29C127.715 29 128.115 29.176 128.419 29.528C128.723 29.864 128.875 30.288 128.875 30.8C128.875 31.296 128.715 31.712 128.395 32.048C128.075 32.384 127.659 32.552 127.147 32.552C126.875 32.552 126.659 32.488 126.499 32.36C126.355 32.232 126.251 31.968 126.187 31.568C126.139 31.312 126.083 31.152 126.019 31.088C125.955 31.008 125.867 30.968 125.755 30.968C125.483 30.968 125.227 31.024 124.987 31.136C124.747 31.248 124.419 31.496 124.003 31.88L122.083 41ZM134.458 36.992C134.458 37.184 134.45 37.352 134.434 37.496C134.418 37.64 134.394 37.776 134.362 37.904C134.682 37.712 134.994 37.512 135.298 37.304C135.602 37.096 135.866 36.896 136.09 36.704H137.098C136.602 37.28 136.05 37.816 135.442 38.312C134.85 38.792 134.178 39.256 133.426 39.704C132.994 40.168 132.442 40.528 131.77 40.784C131.098 41.024 130.394 41.144 129.658 41.144C128.586 41.144 127.73 40.856 127.09 40.28C126.466 39.688 126.154 38.952 126.154 38.072C126.154 37.576 126.274 37.128 126.514 36.728C126.754 36.312 127.058 36.016 127.426 35.84C127.97 34.864 128.474 33.824 128.938 32.72C129.418 31.6 129.898 30.272 130.378 28.736L133.93 28.256C133.978 29.456 134.034 30.552 134.098 31.544C134.162 32.536 134.242 33.616 134.338 34.784C134.386 35.456 134.418 35.928 134.434 36.2C134.45 36.472 134.458 36.736 134.458 36.992ZM130.522 31.328C130.314 31.984 130.058 32.672 129.754 33.392C129.466 34.096 129.074 34.92 128.578 35.864C128.754 35.944 128.89 36.056 128.986 36.2C129.082 36.344 129.13 36.512 129.13 36.704C129.13 37.008 129.026 37.28 128.818 37.52C128.61 37.76 128.362 37.88 128.074 37.88C127.914 37.88 127.778 37.856 127.666 37.808C127.554 37.744 127.474 37.664 127.426 37.568C127.426 38.16 127.538 38.592 127.762 38.864C128.002 39.12 128.378 39.248 128.89 39.248C129.546 39.248 130.058 39.056 130.426 38.672C130.794 38.288 130.978 37.736 130.978 37.016C130.978 36.792 130.97 36.568 130.954 36.344C130.938 36.104 130.906 35.712 130.858 35.168C130.778 34.416 130.714 33.752 130.666 33.176C130.618 32.6 130.57 31.984 130.522 31.328ZM154.129 24.704C153.473 25.056 152.777 25.72 152.041 26.696C151.305 27.656 150.561 28.888 149.809 30.392C150.385 30.504 150.913 30.632 151.393 30.776C151.889 30.92 152.337 31.072 152.737 31.232L154.129 24.704ZM156.001 23C156.337 23 156.673 23.032 157.009 23.096C157.345 23.144 157.641 23.224 157.897 23.336L154.129 41H150.673L152.521 32.288C151.961 32.032 151.433 31.84 150.937 31.712C150.441 31.568 149.897 31.472 149.305 31.424C148.393 33.408 147.641 35.424 147.049 37.472C146.473 39.52 146.185 41.16 146.185 42.392C146.185 42.68 146.209 42.928 146.257 43.136C146.321 43.36 146.409 43.56 146.521 43.736C145.305 43.736 144.465 43.528 144.001 43.112C143.537 42.696 143.305 42.056 143.305 41.192C143.305 40.12 143.625 38.688 144.265 36.896C144.921 35.104 145.777 33.28 146.833 31.424C146.017 31.472 145.377 31.6 144.913 31.808C144.465 32.016 144.169 32.304 144.025 32.672C144.089 32.672 144.153 32.76 144.217 32.936C144.297 33.096 144.337 33.256 144.337 33.416C144.337 33.688 144.209 33.912 143.953 34.088C143.697 34.264 143.377 34.352 142.993 34.352C142.545 34.352 142.185 34.232 141.913 33.992C141.641 33.736 141.505 33.392 141.505 32.96C141.505 32.128 141.969 31.432 142.897 30.872C143.841 30.296 145.009 30.008 146.401 30.008C146.561 30.008 146.745 30.016 146.953 30.032C147.161 30.032 147.393 30.048 147.649 30.08C149.057 27.856 150.489 26.12 151.945 24.872C153.401 23.624 154.753 23 156.001 23ZM163.152 38.432C163.152 38.144 163.184 37.784 163.248 37.352C163.328 36.92 163.48 36.232 163.704 35.288C163.928 34.376 164.072 33.72 164.136 33.32C164.2 32.92 164.232 32.584 164.232 32.312C164.232 31.912 164.16 31.608 164.016 31.4C163.872 31.192 163.656 31.088 163.368 31.088C162.984 31.088 162.624 31.288 162.288 31.688C161.968 32.072 161.704 32.608 161.496 33.296L159.864 41H156.408L158.952 29H162.408L162.144 30.248C162.544 29.8 162.976 29.464 163.44 29.24C163.904 29.016 164.408 28.904 164.952 28.904C165.8 28.904 166.456 29.136 166.92 29.6C167.384 30.064 167.616 30.736 167.616 31.616C167.616 31.984 167.568 32.424 167.472 32.936C167.392 33.432 167.224 34.2 166.968 35.24C166.76 36.056 166.624 36.632 166.56 36.968C166.496 37.304 166.464 37.584 166.464 37.808C166.464 38.144 166.544 38.4 166.704 38.576C166.864 38.736 167.104 38.816 167.424 38.816C167.824 38.816 168.168 38.68 168.456 38.408C168.744 38.136 169.072 37.568 169.44 36.704H170.448C169.936 38.192 169.312 39.304 168.576 40.04C167.856 40.776 166.992 41.144 165.984 41.144C165.088 41.144 164.392 40.904 163.896 40.424C163.4 39.928 163.152 39.264 163.152 38.432ZM172.724 36.944C172.724 37.568 172.812 38.04 172.988 38.36C173.164 38.664 173.476 38.816 173.924 38.816C174.324 38.816 174.716 38.632 175.1 38.264C175.484 37.88 175.748 37.4 175.892 36.824V36.704L177.068 31.208C177.02 30.952 176.908 30.752 176.732 30.608C176.572 30.448 176.356 30.368 176.084 30.368C175.204 30.368 174.42 31.104 173.732 32.576C173.06 34.048 172.724 35.504 172.724 36.944ZM177.284 30.104V30.2L178.46 24.68L182.012 24.2L179.252 37.16C179.22 37.304 179.196 37.44 179.18 37.568C179.164 37.68 179.156 37.8 179.156 37.928C179.156 38.248 179.228 38.48 179.372 38.624C179.532 38.752 179.788 38.816 180.14 38.816C180.556 38.816 180.932 38.632 181.268 38.264C181.604 37.896 181.876 37.376 182.084 36.704H183.092C182.596 38.128 181.948 39.2 181.148 39.92C180.364 40.64 179.404 41 178.268 41C177.612 41 177.076 40.824 176.66 40.472C176.26 40.104 176.012 39.592 175.916 38.936C175.436 39.672 174.9 40.224 174.308 40.592C173.716 40.96 173.068 41.144 172.364 41.144C171.372 41.144 170.588 40.808 170.012 40.136C169.452 39.464 169.172 38.512 169.172 37.28C169.172 36.384 169.308 35.448 169.58 34.472C169.852 33.496 170.228 32.608 170.708 31.808C171.3 30.864 171.988 30.144 172.772 29.648C173.556 29.136 174.412 28.88 175.34 28.88C175.964 28.88 176.444 28.992 176.78 29.216C177.116 29.424 177.284 29.72 177.284 30.104ZM201.769 23.576C202.249 23.576 202.737 23.536 203.233 23.456C203.729 23.36 204.169 23.232 204.553 23.072C204.537 24.096 204.273 24.864 203.761 25.376C203.265 25.872 202.529 26.12 201.553 26.12C201.089 26.12 200.569 26.08 199.993 26C199.433 25.92 198.713 25.784 197.833 25.592L194.521 41H191.065L194.473 25.112H194.185C192.633 25.112 191.489 25.512 190.753 26.312C190.033 27.096 189.673 28.312 189.673 29.96C189.673 30.264 189.689 30.528 189.721 30.752C189.769 30.976 189.841 31.192 189.937 31.4C189.969 31.464 189.985 31.512 189.985 31.544C190.001 31.56 190.009 31.576 190.009 31.592C189.113 31.592 188.457 31.408 188.041 31.04C187.641 30.656 187.441 30.064 187.441 29.264C187.441 27.36 188.153 25.848 189.577 24.728C191.017 23.592 193.033 23.024 195.625 23.024C196.153 23.024 196.657 23.048 197.137 23.096C197.633 23.128 198.265 23.2 199.033 23.312C199.705 23.424 200.225 23.496 200.593 23.528C200.977 23.56 201.369 23.576 201.769 23.576ZM201.396 41H197.94L200.484 29H203.94L203.628 30.488C204.332 29.896 204.884 29.504 205.284 29.312C205.7 29.104 206.116 29 206.532 29C207.028 29 207.428 29.176 207.732 29.528C208.036 29.864 208.188 30.288 208.188 30.8C208.188 31.296 208.028 31.712 207.708 32.048C207.388 32.384 206.972 32.552 206.46 32.552C206.188 32.552 205.972 32.488 205.812 32.36C205.668 32.232 205.564 31.968 205.5 31.568C205.452 31.312 205.396 31.152 205.332 31.088C205.268 31.008 205.18 30.968 205.068 30.968C204.796 30.968 204.54 31.024 204.3 31.136C204.06 31.248 203.732 31.496 203.316 31.88L201.396 41ZM215.277 30.104V30.272L215.541 29H218.997L217.269 37.16C217.237 37.304 217.213 37.44 217.197 37.568C217.181 37.68 217.173 37.8 217.173 37.928C217.173 38.28 217.253 38.544 217.413 38.72C217.573 38.88 217.821 38.96 218.157 38.96C218.573 38.96 218.949 38.768 219.285 38.384C219.621 37.984 219.893 37.424 220.101 36.704H221.109C220.597 38.176 219.933 39.288 219.117 40.04C218.301 40.776 217.357 41.144 216.285 41.144C215.597 41.144 215.045 40.952 214.629 40.568C214.229 40.184 213.997 39.64 213.933 38.936C213.437 39.672 212.885 40.224 212.277 40.592C211.685 40.96 211.045 41.144 210.357 41.144C209.365 41.144 208.581 40.808 208.005 40.136C207.445 39.464 207.165 38.512 207.165 37.28C207.165 36.384 207.301 35.448 207.573 34.472C207.845 33.496 208.221 32.608 208.701 31.808C209.293 30.864 209.981 30.144 210.765 29.648C211.549 29.136 212.405 28.88 213.333 28.88C213.957 28.88 214.437 28.992 214.773 29.216C215.109 29.424 215.277 29.72 215.277 30.104ZM215.061 31.28C215.061 31.04 214.973 30.832 214.797 30.656C214.621 30.464 214.381 30.368 214.077 30.368C213.197 30.368 212.413 31.104 211.725 32.576C211.053 34.048 210.717 35.504 210.717 36.944C210.717 37.568 210.805 38.04 210.981 38.36C211.157 38.664 211.469 38.816 211.917 38.816C212.333 38.816 212.733 38.616 213.117 38.216C213.517 37.816 213.781 37.312 213.909 36.704L215.061 31.28ZM227.549 31.04C227.293 31.04 227.085 30.92 226.925 30.68C226.765 30.424 226.685 30.136 226.685 29.816C226.685 29.416 226.813 29.104 227.069 28.88C227.341 28.64 227.709 28.52 228.173 28.52C228.669 28.52 229.045 28.704 229.301 29.072C229.557 29.44 229.685 29.952 229.685 30.608C229.685 31.696 229.541 32.84 229.253 34.04C228.981 35.224 228.605 36.304 228.125 37.28C227.485 38.544 226.717 39.504 225.821 40.16C224.925 40.816 223.933 41.144 222.845 41.144C221.901 41.144 221.173 40.904 220.661 40.424C220.149 39.928 219.893 39.224 219.893 38.312C219.893 38.136 219.909 37.952 219.941 37.76C219.957 37.552 219.981 37.352 220.013 37.16L221.741 29H225.197L223.469 37.16C223.437 37.336 223.405 37.504 223.373 37.664C223.357 37.808 223.349 37.928 223.349 38.024C223.349 38.28 223.413 38.48 223.541 38.624C223.685 38.752 223.893 38.816 224.165 38.816C224.725 38.816 225.269 38.528 225.797 37.952C226.341 37.36 226.829 36.528 227.261 35.456C227.581 34.688 227.837 33.88 228.029 33.032C228.221 32.184 228.317 31.44 228.317 30.8C228.285 30.864 228.181 30.92 228.005 30.968C227.845 31.016 227.693 31.04 227.549 31.04ZM238.902 31.088C238.902 32.416 238.358 33.576 237.27 34.568C236.182 35.544 234.886 36.072 233.382 36.152C233.366 36.424 233.35 36.632 233.334 36.776C233.334 36.904 233.334 37.016 233.334 37.112C233.334 37.848 233.454 38.368 233.694 38.672C233.95 38.976 234.406 39.128 235.062 39.128C235.814 39.128 236.502 38.96 237.126 38.624C237.766 38.272 238.494 37.632 239.31 36.704H240.126C239.198 38.208 238.19 39.328 237.102 40.064C236.014 40.784 234.822 41.144 233.526 41.144C232.294 41.144 231.358 40.824 230.718 40.184C230.094 39.544 229.782 38.592 229.782 37.328C229.782 36.416 229.926 35.448 230.214 34.424C230.502 33.4 230.886 32.488 231.366 31.688C231.958 30.728 232.662 30.008 233.478 29.528C234.31 29.032 235.238 28.784 236.262 28.784C237.142 28.784 237.798 28.976 238.23 29.36C238.678 29.728 238.902 30.304 238.902 31.088ZM236.454 30.056C235.91 30.056 235.358 30.544 234.798 31.52C234.254 32.48 233.846 33.64 233.574 35C234.502 34.936 235.31 34.512 235.998 33.728C236.702 32.928 237.054 32.032 237.054 31.04C237.054 30.704 237.006 30.456 236.91 30.296C236.814 30.136 236.662 30.056 236.454 30.056ZM239.089 38.264C239.089 38.056 239.105 37.824 239.137 37.568C239.169 37.296 239.217 37.008 239.281 36.704L241.849 24.68L245.401 24.2L242.641 37.16C242.609 37.304 242.585 37.44 242.569 37.568C242.553 37.68 242.545 37.8 242.545 37.928C242.545 38.248 242.617 38.48 242.761 38.624C242.921 38.752 243.177 38.816 243.529 38.816C243.977 38.816 244.401 38.624 244.801 38.24C245.201 37.84 245.497 37.328 245.689 36.704H246.697C246.185 38.16 245.497 39.264 244.633 40.016C243.769 40.768 242.777 41.144 241.657 41.144C240.857 41.144 240.225 40.896 239.761 40.4C239.313 39.888 239.089 39.176 239.089 38.264Z" fill="white"/>
<path d="M75.5 8L77.8868 3H72.1132L74.5 8H75.5ZM74.5 56L72.1132 61H77.8868L75.5 56H74.5ZM74.5 7.5V56.5H75.5V7.5H74.5Z" fill="white"/>
<g clip-path="url(#clip0_27_166)">
<path d="M32.5 45.6008C42.0241 45.6008 49.7449 37.88 49.7449 28.3559C49.7449 18.8318 42.0241 11.111 32.5 11.111C22.9759 11.111 15.2551 18.8318 15.2551 28.3559C15.2551 37.88 22.9759 45.6008 32.5 45.6008Z" fill="#F75534"/>
<path d="M34.8877 44.7168C25.3636 44.7168 17.6428 36.9961 17.6428 27.4719C17.6428 20.5047 21.775 14.5031 27.7219 11.7825C20.5221 13.8543 15.2549 20.4899 15.2549 28.3563C15.2549 37.8804 22.9757 45.6012 32.4999 45.6012C35.0567 45.6012 37.4833 45.044 39.6656 44.0458C38.1485 44.4824 36.5455 44.7168 34.8877 44.7168Z" fill="#BD391E"/>
<path d="M58.4072 54.9714H6.59282C6.04235 54.9714 5.85522 54.2392 6.33675 53.9752C10.9425 51.4614 22.9688 44.5064 30.0445 36.8165C30.1453 36.7064 30.286 36.6454 30.4332 36.6454H34.5667C34.7139 36.6454 34.8545 36.7064 34.9554 36.8165C42.0311 44.5064 54.0574 51.4614 58.6631 53.9752C59.1447 54.2392 58.9577 54.9714 58.4072 54.9714Z" fill="#7FB2F0"/>
<path d="M34.3293 21.3784C34.3293 24.3723 31.9004 26.7999 28.9065 26.7999H10.9743C10.9743 26.7999 4.45441 27.2681 4.45441 22.5869C4.45441 22.4741 4.44247 22.36 4.44247 22.2446C4.44247 19.7176 6.49061 17.6681 9.01901 17.6681C9.41028 17.6681 9.78834 17.7172 10.1505 17.81C10.5405 15.2882 12.7213 13.3581 15.3532 13.3581C15.8479 13.3581 16.3243 13.4285 16.7779 13.5544C17.4809 10.8828 20.4483 8.63029 23.9398 9.09468C27.3741 9.55095 29.892 13.057 29.4171 15.9635C29.4158 15.9688 29.4158 15.9754 29.4144 15.9807C30.607 16.0908 31.6867 16.5883 32.5291 17.3431C33.6342 18.3366 34.3293 19.7759 34.3293 21.3784Z" fill="#F7EDE3"/>
<path d="M6.84177 22.9116C6.84177 22.8073 6.83073 22.7022 6.83073 22.5956C6.83073 20.4009 8.82732 18.6276 11.1437 19.0323C11.3836 19.0742 11.6125 18.9207 11.6707 18.6842C12.2624 16.2766 14.8639 14.6801 17.3337 15.1201C17.5543 15.1594 17.7722 15.0423 17.8534 14.8335C19.0898 11.656 21.7273 10.042 24.8318 10.4549C26.68 10.7007 28.2391 11.9033 29.1327 13.3949C28.3671 11.2935 26.3871 9.42058 23.9403 9.0952C20.4489 8.63094 17.4815 10.8833 16.7784 13.5549C16.3247 13.4289 15.8485 13.3587 15.3537 13.3587C12.7219 13.3587 10.5411 15.2887 10.1511 17.8105C9.78886 17.7177 9.4108 17.6686 9.01953 17.6686C6.49113 17.6686 4.44299 19.7181 4.44299 22.2451C4.44299 22.3605 4.45493 22.4744 4.45493 22.5874C4.45493 27.2678 10.9749 26.8005 10.9749 26.8005H11.9038C10.2053 26.7162 6.84177 26.1418 6.84177 22.9116Z" fill="#DBD2CA"/>
<path d="M12.1719 14.4294C12.139 14.4541 12.106 14.4787 12.0736 14.5043C12.1007 14.5106 12.1284 14.5156 12.1553 14.5224C12.1601 14.4912 12.1666 14.4604 12.1719 14.4294Z" fill="#DBD2CA"/>
<path d="M62.5808 32.6494C62.5808 35.6433 60.1519 38.0709 57.158 38.0709H39.2258C39.2258 38.0709 32.7059 38.5383 32.7059 33.8579C32.7059 33.7449 32.694 33.631 32.694 33.5156C32.694 30.9886 34.7421 28.9391 37.2705 28.9391C37.6618 28.9391 38.0399 28.9882 38.402 29.081C38.792 26.5593 40.9728 24.6291 43.6047 24.6291C44.0995 24.6291 44.5758 24.6995 45.0294 24.8254C45.7324 22.1538 48.6999 19.9013 52.1913 20.3657C55.6324 20.8233 58.1528 24.3413 57.6659 27.2517C60.4226 27.5077 62.5808 29.8252 62.5808 32.6494Z" fill="#F7EDE3"/>
<path d="M40.5751 25.5886C40.4518 25.6754 40.3326 25.7676 40.2175 25.8643C40.3159 25.8827 40.4134 25.9038 40.5097 25.9285C40.5274 25.8138 40.5501 25.7008 40.5751 25.5886Z" fill="#DBD2CA"/>
<path d="M32.5 36.6454C25.3699 44.273 16.9796 51.3367 9.73338 54.9714H6.59282C6.04235 54.9714 5.85522 54.2392 6.33675 53.9752C10.9425 51.4614 22.9688 44.5064 30.0445 36.8165C30.1453 36.7064 30.286 36.6454 30.4332 36.6454H32.5Z" fill="#5F95D4"/>
<path d="M48.3374 47.7405C47.7205 48.7765 47.1647 49.9133 45.9443 49.9133C43.7039 49.9133 43.7039 46.0822 41.4647 46.0822C39.2242 46.0822 39.2242 49.9133 36.9836 49.9133C34.7417 49.9133 34.7417 46.0822 32.5025 46.0822C30.2621 46.0822 30.2621 49.9133 28.0215 49.9133C25.7796 49.9133 25.7796 46.0822 23.5404 46.0822C23.2419 46.0822 22.9832 46.1499 22.7538 46.2692C22.523 46.3873 22.32 46.557 22.1369 46.7587C21.1393 47.8584 20.7003 49.9133 19.0593 49.9133C18.7343 49.9133 18.4571 49.8324 18.2131 49.6944C18.1919 49.6825 18.1707 49.6691 18.1493 49.6547C17.5113 49.2634 17.104 48.474 16.6663 47.7378C21.3012 44.6497 26.3486 40.8332 30.0443 36.8165C30.1451 36.7077 30.2858 36.6454 30.4331 36.6454H34.5665C34.7138 36.6454 34.8543 36.7077 34.9553 36.8165C38.6524 40.8346 43.7012 44.6523 48.3374 47.7405Z" fill="#F7EDE3"/>
<path d="M32.5292 17.3431C31.2955 16.8297 29.6811 16.8058 28.21 17.4572C27.2085 17.9016 26.4099 18.72 25.9788 19.7283C25.2333 21.4726 25.4734 23.1825 26.3077 24.4733C26.3873 24.5953 26.2361 24.7359 26.122 24.6457C24.4692 23.3403 23.6839 20.9845 24.7782 18.5834C25.2093 17.6403 25.9747 16.8854 26.9205 16.461C27.7509 16.0883 28.6039 15.9357 29.4171 15.9636C29.4158 15.9689 29.4158 15.9755 29.4144 15.9809C30.607 16.0908 31.6869 16.5883 32.5292 17.3431Z" fill="#DBD2CA"/>
<path d="M35.0929 34.1821C35.0929 34.0778 35.0819 33.9727 35.0819 33.8662C35.0819 31.6714 37.0784 29.8981 39.3948 30.3028C39.6348 30.3447 39.8637 30.1912 39.9218 29.9547C40.5135 27.5471 43.1151 25.9506 45.5848 26.3907C45.8055 26.4299 46.0233 26.3128 46.1046 26.104C47.3411 22.9265 49.9784 21.3125 53.0829 21.7254C54.9311 21.9712 56.4902 23.1738 57.3838 24.6654C56.6182 22.564 54.6382 20.6911 52.1915 20.3657C48.7 19.9014 45.7326 22.1538 45.0295 24.8254C44.5758 24.6994 44.0996 24.6292 43.6049 24.6292C40.973 24.6292 38.7922 26.5592 38.4022 29.081C38.04 28.9882 37.6619 28.9391 37.2707 28.9391C34.7423 28.9391 32.6941 30.9886 32.6941 33.5156C32.6941 33.631 32.7061 33.7449 32.7061 33.8579C32.7061 38.5383 39.226 38.071 39.226 38.071H40.1549C38.4564 37.9868 35.0929 37.4126 35.0929 34.1821Z" fill="#DBD2CA"/>
<path d="M60.7803 28.6138C59.5466 28.1004 57.9323 28.0766 56.4611 28.728C55.4596 29.1723 54.6611 29.9908 54.2299 30.999C53.4845 32.7434 53.7245 34.4533 54.5589 35.744C54.6385 35.866 54.4873 36.0067 54.3731 35.9164C52.7203 34.6111 51.935 32.2552 53.0293 29.8542C53.4605 28.911 54.2259 28.1562 55.1717 27.7318C56.0021 27.359 56.8551 27.2064 57.6682 27.2344C57.6669 27.2397 57.6669 27.2463 57.6655 27.2516C58.8581 27.3616 59.938 27.859 60.7803 28.6138Z" fill="#DBD2CA"/>
<path d="M32.5 36.6454C28.015 41.4422 23.0326 46.0174 18.1496 49.6547C17.5115 49.2634 17.1043 48.4741 16.6665 47.7378C21.3015 44.6497 26.3489 40.8332 30.0446 36.8166C30.1454 36.7078 30.2861 36.6454 30.4333 36.6454H32.5Z" fill="#DBD2CA"/>
<path d="M64.0051 55.9663H0.994932C0.445479 55.9663 0 55.5208 0 54.9714C0 54.4219 0.445479 53.9764 0.994932 53.9764H64.0052C64.5547 53.9764 65.0001 54.4219 65.0001 54.9714C65.0001 55.5208 64.5545 55.9663 64.0051 55.9663Z" fill="#5F95D4"/>
</g>
<defs>
<clipPath id="clip0_27_166">
<rect width="65" height="65" fill="white"/>
</clipPath>
</defs>
</svg>
