<svg width="16" height="21" viewBox="0 0 16 21" fill="none" xmlns="http://www.w3.org/2000/svg">
<path d="M8 3.9375C8.21217 3.9375 8.41566 4.00664 8.56569 4.12971C8.71572 4.25278 8.8 4.4197 8.8 4.59375V7.21875C8.8 7.3928 8.71572 7.55972 8.56569 7.68279C8.41566 7.80586 8.21217 7.875 8 7.875C7.78783 7.875 7.58434 7.80586 7.43431 7.68279C7.28429 7.55972 7.2 7.3928 7.2 7.21875V4.59375C7.2 4.4197 7.28429 4.25278 7.43431 4.12971C7.58434 4.00664 7.78783 3.9375 8 3.9375V3.9375ZM14.4 14.4375C14.4 15.8299 13.7257 17.1652 12.5255 18.1498C11.3253 19.1344 9.69739 19.6875 8 19.6875C6.30261 19.6875 4.67475 19.1344 3.47452 18.1498C2.27428 17.1652 1.6 15.8299 1.6 14.4375V6.5625C1.6 5.17011 2.27428 3.83476 3.47452 2.85019C4.67475 1.86562 6.30261 1.3125 8 1.3125C9.69739 1.3125 11.3253 1.86562 12.5255 2.85019C13.7257 3.83476 14.4 5.17011 14.4 6.5625V14.4375ZM8 0C5.87827 0 3.84344 0.691404 2.34315 1.92211C0.842855 3.15282 0 4.82202 0 6.5625V14.4375C0 16.178 0.842855 17.8472 2.34315 19.0779C3.84344 20.3086 5.87827 21 8 21C10.1217 21 12.1566 20.3086 13.6569 19.0779C15.1571 17.8472 16 16.178 16 14.4375V6.5625C16 4.82202 15.1571 3.15282 13.6569 1.92211C12.1566 0.691404 10.1217 0 8 0V0Z" fill="white"/>
</svg>
