<svg width="52" height="42" viewBox="0 0 52 42" fill="none" xmlns="http://www.w3.org/2000/svg">
<path d="M52 4.98197C50.0877 5.82385 48.0335 6.3927 45.8739 6.64981C48.1022 5.32508 49.7693 3.24009 50.5641 0.783907C48.4705 2.01941 46.1793 2.88907 43.7898 3.35508C42.183 1.65052 40.0548 0.520706 37.7354 0.141056C35.4161 -0.238595 33.0355 0.153155 30.9633 1.25548C28.891 2.35781 27.243 4.10905 26.2752 6.2373C25.3073 8.36555 25.0737 10.7517 25.6107 13.0254C21.3686 12.8138 17.2187 11.7183 13.4304 9.81009C9.64201 7.90186 6.29982 5.22352 3.62072 1.9489C2.70466 3.5189 2.17793 5.3392 2.17793 7.27782C2.1769 9.02302 2.60946 10.7415 3.43723 12.2807C4.26499 13.82 5.46236 15.1325 6.9231 16.1017C5.22903 16.0482 3.57233 15.5934 2.0909 14.7752V14.9117C2.09073 17.3594 2.94291 19.7318 4.50284 21.6263C6.06277 23.5208 8.23438 24.8208 10.6492 25.3056C9.07763 25.7282 7.43 25.7904 5.83071 25.4876C6.51202 27.5937 7.83915 29.4354 9.62632 30.7549C11.4135 32.0744 13.5712 32.8056 15.7974 32.8462C12.0183 35.7937 7.3511 37.3926 2.54664 37.3855C1.69558 37.3858 0.845238 37.3364 0 37.2376C4.87681 40.353 10.5538 42.0064 16.3516 42C35.9782 42 46.7075 25.8494 46.7075 11.8422C46.7075 11.3871 46.696 10.9275 46.6754 10.4724C48.7624 8.97291 50.5639 7.11603 51.9954 4.98879L52 4.98197Z" fill="white"/>
</svg>
